<svg width="11" height="16" viewBox="0 0 11 16" fill="none" xmlns="http://www.w3.org/2000/svg">
<path d="M10.5602 10.8895C10.2095 10.6044 9.65371 10.6044 9.30315 10.8895L6.32205 13.3984V0.761892C6.32205 0.341104 5.91699 0 5.4173 0C4.91761 0 4.51255 0.341104 4.51255 0.761892V13.3984L1.53325 10.8895C1.17383 10.5972 0.601097 10.6056 0.253978 10.9082C-0.0846594 11.2035 -0.0846594 11.6716 0.253978 11.9668L4.77761 15.7762C5.13051 16.0741 5.70335 16.0747 6.05709 15.7775C6.05762 15.7771 6.05816 15.7766 6.05874 15.7762L10.5824 11.9668C10.9295 11.6641 10.9196 11.1818 10.5602 10.8895Z" fill="#E31F26"/>
</svg>
