<svg width="40" height="40" viewBox="0 0 40 40" fill="none" xmlns="http://www.w3.org/2000/svg">
<path fill-rule="evenodd" clip-rule="evenodd" d="M20 40C31.0457 40 40 31.0457 40 20C40 8.9543 31.0457 0 20 0C8.9543 0 0 8.9543 0 20C0 31.0457 8.9543 40 20 40ZM22.5828 14.6784C22.5828 13.3819 21.4244 12.3275 20.0001 12.3275C18.5771 12.3275 17.4174 13.3819 17.4174 14.6784C17.4174 15.9736 18.5771 17.0283 20.0001 17.0283C21.4244 17.0283 22.5828 15.9736 22.5828 14.6784ZM26.2377 14.6784C26.2377 17.8086 23.4408 20.3545 20.0001 20.3545C16.5603 20.3545 13.7625 17.8085 13.7625 14.6784C13.7625 11.5469 16.5603 9 20.0001 9C23.4408 9 26.2377 11.5469 26.2377 14.6784ZM26.146 23.6208C25.0183 24.2658 23.7936 24.723 22.5237 24.9864C22.5237 24.9864 26.0111 28.1607 26.011 28.1607C26.7253 28.8095 26.7253 29.8633 26.011 30.5128C25.2974 31.1624 24.1406 31.1624 23.4276 30.5128L19.9993 27.3935L16.574 30.5128C16.2168 30.8374 15.7488 30.9999 15.2808 30.9999C14.8136 30.9999 14.3463 30.8373 13.9891 30.5128C13.2754 29.8633 13.2754 28.8103 13.9884 28.1607L17.4758 24.9864C16.206 24.723 14.9813 24.265 13.8537 23.6208C13 23.1311 12.7434 22.1046 13.2813 21.327C13.818 20.5484 14.9456 20.3141 15.8007 20.8038C18.3543 22.266 21.644 22.2666 24.199 20.8038C25.054 20.3141 26.1817 20.5483 26.7189 21.327C27.2568 22.104 26.9994 23.1311 26.146 23.6208Z" fill="#F7931E"/>
</svg>
