<svg width="70" height="70" fill="none" xmlns="http://www.w3.org/2000/svg"><g filter="url(#a)"><path fill-rule="evenodd" clip-rule="evenodd" d="M35 65c16.569 0 30-13.431 30-30C65 18.431 51.569 5 35 5 18.431 5 5 18.431 5 35c0 16.569 13.431 30 30 30Zm-2.483-39.59 9.051 8.6c.288.273.432.632.432.99s-.144.717-.431.99l-9.052 8.6a1.53 1.53 0 0 1-2.085 0 1.352 1.352 0 0 1 0-1.981L38.44 35l-8.01-7.609a1.352 1.352 0 0 1 0-1.98 1.529 1.529 0 0 1 2.086 0Z" fill="#fff" fill-opacity=".8" shape-rendering="crispEdges"/></g><defs><filter id="a" x="0" y="0" width="70" height="70" filterUnits="userSpaceOnUse" color-interpolation-filters="sRGB"><feFlood flood-opacity="0" result="BackgroundImageFix"/><feColorMatrix in="SourceAlpha" values="0 0 0 0 0 0 0 0 0 0 0 0 0 0 0 0 0 0 127 0" result="hardAlpha"/><feOffset/><feGaussianBlur stdDeviation="2.5"/><feComposite in2="hardAlpha" operator="out"/><feColorMatrix values="0 0 0 0 0.466319 0 0 0 0 0.596635 0 0 0 0 0.708333 0 0 0 0.25 0"/><feBlend in2="BackgroundImageFix" result="effect1_dropShadow_362_174"/><feBlend in="SourceGraphic" in2="effect1_dropShadow_362_174" result="shape"/></filter></defs></svg>