<svg width="18" height="18" viewBox="0 0 18 18" fill="none" xmlns="http://www.w3.org/2000/svg">
<path d="M9 18C13.9718 18 18 13.9718 18 9C18 4.02825 13.9718 0 9 0C4.02825 0 0 4.02825 0 9C0 13.9718 4.02825 18 9 18ZM4.11825 8.805L12.7958 5.45925C13.1985 5.31375 13.5503 5.5575 13.4198 6.1665L13.4205 6.16575L11.943 13.1265C11.8335 13.62 11.5402 13.74 11.13 13.5075L8.88 11.8492L7.79475 12.8948C7.67475 13.0148 7.5735 13.116 7.341 13.116L7.50075 10.8263L11.6707 7.059C11.8523 6.89925 11.6302 6.80925 11.391 6.96825L6.23775 10.2127L4.01625 9.51975C3.534 9.36675 3.5235 9.0375 4.11825 8.805Z" fill="#27A5DC"/>
</svg>
