<svg width="18" height="18" viewBox="0 0 18 18" fill="none" xmlns="http://www.w3.org/2000/svg">
<path fill-rule="evenodd" clip-rule="evenodd" d="M0 9C0 4.0302 4.0302 0 9 0C13.9698 0 18 4.0302 18 9C18 13.9698 13.9698 18 9 18C4.0302 18 0 13.9698 0 9ZM12.8778 5.16957C13.7866 5.98823 14.2904 7.79823 13.9501 10.6652C13.6523 13.1947 11.9484 13.6427 11.3765 13.7931C11.3204 13.8079 11.2752 13.8198 11.2433 13.8305C11.0888 13.8818 9.72951 14.2339 7.95954 14.0802L7.78341 14.291C6.88248 15.3697 6.72724 15.5555 6.40678 15.4516C6.10925 15.3579 6.12683 14.8917 6.12683 14.8917L6.12921 13.741H6.12683C3.54079 12.9875 3.57692 10.21 3.60733 8.72726C3.63775 7.24501 3.91532 6.04769 4.70335 5.23188C6.45811 3.56411 11.4116 3.77104 12.8783 5.16909L12.8778 5.16957ZM6.66533 15.0316C7.01372 14.6686 8.13397 13.2706 8.13397 13.2706C9.63493 13.3709 10.8303 13.0632 10.9591 13.0204C10.9891 13.0104 11.0324 12.9999 11.0862 12.9869L11.0863 12.9869C11.5734 12.8692 12.9269 12.5421 13.1772 10.4545C13.177 10.4441 13.1806 10.4075 13.1865 10.3484L13.1865 10.3481L13.1865 10.3481C13.2461 9.74774 13.5344 6.84043 12.3032 5.74801C11.1967 4.7072 6.85402 4.3842 5.31457 5.82888C4.64726 6.51149 4.42103 7.52519 4.39726 8.76293L4.39454 8.89438C4.36735 10.1607 4.31957 12.3869 6.43672 12.9942C6.43672 12.9942 6.42816 14.7509 6.42816 14.9046C6.42626 15.1386 6.55126 15.1496 6.66533 15.0316ZM8.75345 6.09979C8.57046 6.09979 8.57046 6.38521 8.75345 6.38759C10.1731 6.39853 11.3423 7.38894 11.3552 9.20564C11.3552 9.39734 11.6356 9.39497 11.6332 9.20326H11.6327C11.6175 7.24575 10.3409 6.11073 8.75345 6.09979ZM10.8997 8.91127C10.8973 9.10298 10.6174 9.09394 10.6216 8.90461C10.6435 7.95938 10.0727 7.21918 8.98903 7.13688C8.80651 7.12356 8.82553 6.83576 9.00851 6.84908C10.258 6.9428 10.923 7.83189 10.8997 8.91127ZM10.3215 10.1321C10.0867 9.99608 9.84765 10.0808 9.74879 10.2144L9.54204 10.4822C9.437 10.6183 9.2407 10.6002 9.2407 10.6002C7.80819 10.2211 7.42511 8.72074 7.42511 8.72074C7.42511 8.72074 7.40752 8.51762 7.5387 8.40869L7.79726 8.19462C7.92654 8.09187 8.00829 7.84451 7.87663 7.60143C7.61143 7.12187 7.4119 6.87923 7.27823 6.71669C7.23463 6.66366 7.19803 6.61916 7.16845 6.57774C7.04203 6.41933 6.85191 6.38365 6.65419 6.49068H6.64992C6.23879 6.73139 5.7887 7.18187 5.93271 7.64567C5.97532 7.73047 6.02411 7.84743 6.08317 7.989C6.36472 8.66384 6.87951 9.89777 8.06912 10.8714C8.74546 11.4284 9.8158 11.9992 10.2702 12.131L10.2745 12.1377C10.7222 12.287 11.1575 11.8189 11.39 11.3951V11.3918C11.4931 11.1867 11.4589 10.9927 11.3082 10.8656C11.0411 10.605 10.638 10.3172 10.3215 10.1321ZM9.90559 8.66647C9.88183 8.17603 9.66042 7.93723 9.20381 7.91059C9.01899 7.89965 9.03609 7.61186 9.21902 7.6228C9.81959 7.6561 10.1531 8.01287 10.1835 8.65315C10.1921 8.84485 9.91414 8.85817 9.90559 8.66647Z" fill="#7C519D"/>
</svg>
