<svg width="40" height="40" viewBox="0 0 40 40" fill="none" xmlns="http://www.w3.org/2000/svg">
<path fill-rule="evenodd" clip-rule="evenodd" d="M20 40C31.0457 40 40 31.0457 40 20C40 8.9543 31.0457 0 20 0C8.9543 0 0 8.9543 0 20C0 31.0457 8.9543 40 20 40ZM31.7666 25.4513C31.7751 25.4673 31.7815 25.4792 31.7861 25.4871C32.5811 26.8352 30.904 26.941 30.904 26.941L27.6983 26.987C27.6983 26.987 27.0097 27.1266 26.1037 26.4901C25.6299 26.1573 25.1666 25.6143 24.7252 25.0969C24.05 24.3055 23.4259 23.5739 22.8934 23.7464C21.9994 24.0363 22.0279 26.004 22.0279 26.004C22.0279 26.004 22.0354 26.4242 21.8314 26.6481C21.6108 26.8919 21.1773 26.941 21.1773 26.941H19.7432C19.7432 26.941 16.578 27.1358 13.7893 24.1682C10.75 20.9306 8.06484 14.5092 8.06484 14.5092C8.06484 14.5092 7.91033 14.089 8.07834 13.885C8.26735 13.6565 8.78189 13.6412 8.78189 13.6412L12.2111 13.6197C12.2111 13.6197 12.5352 13.6749 12.7662 13.8482C12.9567 13.9909 13.0632 14.2577 13.0632 14.2577C13.0632 14.2577 13.6182 15.6917 14.3518 16.9876C15.7844 19.5197 16.452 20.0733 16.9395 19.8019C17.649 19.4062 17.436 16.2239 17.436 16.2239C17.436 16.2239 17.4495 15.0675 17.079 14.5537C16.7925 14.155 16.2524 14.0384 16.0139 14.0062C15.8204 13.9801 16.1369 13.5216 16.548 13.3161C17.1645 13.0078 18.2551 12.9894 19.5422 13.0032C20.5458 13.0139 20.8338 13.0783 21.2268 13.175C22.1372 13.3994 22.1089 14.1196 22.0478 15.6739C22.0295 16.1378 22.0084 16.6759 22.0084 17.2974C22.0084 17.4376 22.0043 17.5872 22.0002 17.741C21.9788 18.5363 21.9543 19.447 22.4659 19.785C22.7284 19.9583 23.372 19.8111 24.9786 17.0214C25.7406 15.6994 26.3122 14.1442 26.3122 14.1442C26.3122 14.1442 26.4367 13.8682 26.6302 13.7486C26.8297 13.6274 27.0967 13.6642 27.0967 13.6642L30.703 13.6427C30.703 13.6427 31.7876 13.5108 31.9631 14.0108C32.1476 14.5353 31.5581 15.7622 30.0835 17.7713C28.6815 19.6815 28.0008 20.3818 28.0664 21.0032C28.1141 21.455 28.5562 21.8651 29.4024 22.6683C31.1849 24.3596 31.6565 25.2448 31.7666 25.4513Z" fill="#4680C2"/>
</svg>
